<svg width="13" height="14" viewBox="0 0 13 14" fill="none" xmlns="http://www.w3.org/2000/svg">
<g clip-path="url(#clip0)">
<path d="M11.9167 2.54397H9.20834V2.00229C9.20834 1.40482 8.72249 0.918945 8.125 0.918945H4.875C4.27753 0.918945 3.79166 1.40479 3.79166 2.00229V2.54395H1.08334C0.48585 2.54397 0 3.02982 0 3.62729V10.6689C0 11.2664 0.48585 11.7523 1.08334 11.7523H11.9167C12.5142 11.7523 13 11.2664 13 10.6689V3.62729C13 3.02982 12.5142 2.54397 11.9167 2.54397ZM4.33334 2.00229C4.33334 1.70369 4.57641 1.46063 4.875 1.46063H8.125C8.42359 1.46063 8.66666 1.70369 8.66666 2.00229V2.54395H4.33334V2.00229ZM12.4583 10.669C12.4583 10.9676 12.2153 11.2106 11.9167 11.2106H1.08334C0.784748 11.2106 0.541684 10.9676 0.541684 10.669V6.72664C0.70167 6.81993 0.885143 6.87731 1.08334 6.87731H5.41668V7.68981C5.41668 7.83952 5.53782 7.96065 5.68753 7.96065H7.31253C7.46223 7.96065 7.58337 7.83952 7.58337 7.68981V6.87731H11.9167C12.1149 6.87731 12.2984 6.81995 12.4584 6.72664V10.669H12.4583ZM5.95834 7.41897V6.33563H7.04168V7.41897H5.95834ZM12.4583 5.79397C12.4583 6.09256 12.2153 6.33563 11.9167 6.33563H7.58334V6.06479C7.58334 5.91508 7.4622 5.79395 7.3125 5.79395H5.6875C5.5378 5.79395 5.41666 5.91508 5.41666 6.06479V6.33563H1.08334C0.784748 6.33563 0.541684 6.09256 0.541684 5.79397V3.62731C0.541684 3.32872 0.784748 3.08565 1.08334 3.08565H11.9167C12.2153 3.08565 12.4583 3.32872 12.4583 3.62731V5.79397Z" fill="white"/>
</g>
<defs>
<clipPath id="clip0">
<rect y="0.835449" width="13" height="13" fill="white"/>
</clipPath>
</defs>
</svg>
