<svg width="13" height="12" viewBox="0 0 13 12" fill="none" xmlns="http://www.w3.org/2000/svg">
<path d="M12.6591 1.22522C12.4318 0.997882 12.1585 0.884277 11.8393 0.884277H1.16074C0.841552 0.884277 0.568251 0.997882 0.34094 1.22522C0.113604 1.4525 0 1.72578 0 2.04502V9.93793C0 10.2572 0.113604 10.5303 0.34094 10.7576C0.568225 10.985 0.841527 11.0986 1.16074 11.0986H11.8394C12.1585 11.0986 12.4318 10.985 12.6591 10.7576C12.8865 10.5303 13 10.2571 13 9.93793V2.04502C13 1.72578 12.8865 1.4525 12.6591 1.22522ZM12.0713 9.93775C12.0713 10.0006 12.0484 10.055 12.0024 10.101C11.9564 10.147 11.902 10.1697 11.8393 10.1697H1.16067C1.0978 10.1697 1.04338 10.147 0.997463 10.101C0.951498 10.055 0.928553 10.0006 0.928553 9.93775V4.36637C1.08329 4.54047 1.25016 4.70009 1.42911 4.84515C2.72529 5.84142 3.7554 6.65871 4.51956 7.29713C4.7662 7.50513 4.96694 7.66712 5.12168 7.78321C5.27642 7.89936 5.48559 8.01659 5.74913 8.13503C6.0127 8.25364 6.26059 8.31266 6.49273 8.31266H6.50002H6.50724C6.73933 8.31266 6.98732 8.25364 7.25079 8.13503C7.51443 8.01659 7.72373 7.89938 7.87842 7.78321C8.03314 7.66712 8.2339 7.50513 8.48057 7.29713C9.24472 6.65871 10.2747 5.84142 11.5709 4.84515C11.7499 4.70012 11.9168 4.54047 12.0713 4.36637V9.93775ZM12.0713 2.23358V2.31336C12.0713 2.59868 11.959 2.9167 11.7341 3.2673C11.5092 3.61789 11.2661 3.89724 11.0051 4.10514C10.0716 4.84038 9.10205 5.60684 8.0959 6.40482C8.06693 6.42898 7.98222 6.50028 7.84191 6.61871C7.7018 6.73732 7.59051 6.82811 7.50826 6.89089C7.42591 6.95386 7.31843 7.03001 7.18549 7.1194C7.05244 7.20879 6.93035 7.27541 6.81914 7.31889C6.70792 7.36226 6.60392 7.38398 6.50724 7.38398H6.50002H6.49273C6.39602 7.38398 6.29213 7.36226 6.18083 7.31889C6.06962 7.27541 5.94745 7.20879 5.81451 7.1194C5.68159 7.02998 5.57396 6.95383 5.49174 6.89089C5.40956 6.82811 5.29827 6.73732 5.15806 6.61871C5.0178 6.50028 4.93309 6.42898 4.9041 6.40482C3.89817 5.60682 2.92853 4.84038 1.99508 4.10514C1.2841 3.54421 0.92868 2.8574 0.92868 2.04489C0.92868 1.98208 0.951625 1.92763 0.99759 1.88174C1.04356 1.83577 1.09793 1.81278 1.16079 1.81278H11.8394C11.878 1.8345 11.9119 1.84055 11.941 1.83095C11.97 1.82116 11.9917 1.83936 12.0062 1.88527C12.0207 1.93124 12.034 1.95296 12.0461 1.95057C12.0582 1.94813 12.0655 1.97834 12.0679 2.04131C12.0701 2.10414 12.0714 2.13578 12.0714 2.13578V2.23358H12.0713Z" fill="white"/>
</svg>
