<svg width="13" height="14" viewBox="0 0 13 14" fill="none" xmlns="http://www.w3.org/2000/svg">
<path d="M2.63439 8.65232C3.92147 10.187 5.47084 11.3953 7.23922 12.2503C7.91251 12.5685 8.81292 12.9461 9.81609 13.0108C9.87828 13.0135 9.93777 13.0162 9.99996 13.0162C10.6732 13.0162 11.214 12.7843 11.6548 12.3069C11.6575 12.3042 11.6629 12.2988 11.6656 12.2934C11.8224 12.1046 12.0009 11.9347 12.1875 11.754C12.3145 11.6326 12.4443 11.5059 12.5687 11.3764C13.1447 10.7776 13.1447 10.0171 12.5633 9.43717L10.9382 7.81621C10.6624 7.53032 10.3325 7.37928 9.98644 7.37928C9.64034 7.37928 9.30775 7.53032 9.02383 7.81352L8.05582 8.77908C7.96659 8.72784 7.87465 8.68198 7.78813 8.63883C7.67997 8.58489 7.57992 8.53364 7.49069 8.47701C6.6092 7.9187 5.80883 7.19049 5.04361 6.25459C4.65695 5.76641 4.39737 5.35645 4.2162 4.9384C4.47038 4.70915 4.70832 4.46911 4.93816 4.23446C5.01928 4.15085 5.1031 4.06724 5.18692 3.98363C5.47895 3.69234 5.63578 3.3552 5.63578 3.01267C5.63578 2.67014 5.48165 2.333 5.18692 2.04171L4.38115 1.23797C4.28651 1.14357 4.19728 1.05187 4.10534 0.957473C3.92688 0.774069 3.74031 0.585272 3.55644 0.415354C3.27793 0.142947 2.95075 0 2.60465 0C2.26125 0 1.93136 0.142947 1.64204 0.418051L0.630762 1.42677C0.263024 1.79358 0.0548197 2.2386 0.0115565 2.75375C-0.0398187 3.39835 0.0791553 4.08342 0.387406 4.91143C0.860598 6.19256 1.57444 7.38198 2.63439 8.65232ZM0.671321 2.81038C0.703769 2.45167 0.84167 2.15229 1.10125 1.89337L2.10712 0.890045C2.26395 0.739007 2.437 0.660791 2.60465 0.660791C2.76959 0.660791 2.93723 0.739007 3.09136 0.895439C3.27252 1.06266 3.44287 1.23797 3.62674 1.42407C3.71868 1.51847 3.81332 1.61287 3.90795 1.70997L4.71373 2.5137C4.88138 2.68092 4.9679 2.85084 4.9679 3.01806C4.9679 3.18528 4.88138 3.3552 4.71373 3.52242C4.62991 3.60603 4.54609 3.69234 4.46226 3.77595C4.2108 4.02948 3.97555 4.26952 3.71597 4.49877C3.71057 4.50417 3.70786 4.50686 3.70245 4.51226C3.47803 4.73612 3.51318 4.94919 3.56726 5.11102C3.56996 5.11911 3.57266 5.1245 3.57537 5.13259C3.78357 5.63156 4.07289 6.10625 4.52446 6.67264C5.33564 7.67057 6.19009 8.44464 7.13107 9.0407C7.24734 9.11622 7.37172 9.17556 7.48799 9.23489C7.59615 9.28883 7.69619 9.34008 7.78542 9.39672C7.79624 9.40211 7.80435 9.40751 7.81517 9.4129C7.9044 9.45875 7.99092 9.48033 8.07745 9.48033C8.29377 9.48033 8.43437 9.34278 8.48034 9.29693L9.49162 8.28821C9.64845 8.13177 9.8188 8.04817 9.98644 8.04817C10.1919 8.04817 10.3596 8.17493 10.465 8.28821L12.0955 9.91187C12.42 10.2355 12.4173 10.5861 12.0874 10.9287C11.9738 11.05 11.8549 11.166 11.7278 11.2874C11.5385 11.4708 11.3411 11.6596 11.1627 11.8727C10.8517 12.2071 10.4813 12.3635 10.0027 12.3635C9.9567 12.3635 9.90803 12.3608 9.86206 12.3581C8.97516 12.3015 8.15046 11.9563 7.53125 11.6623C5.84939 10.8505 4.37303 9.69879 3.14814 8.23696C2.13957 7.02596 1.46088 5.89857 1.01202 4.69027C0.733512 3.94856 0.628058 3.3525 0.671321 2.81038Z" fill="white"/>
</svg>
