<svg id="Layer_1" data-name="Layer 1" xmlns="http://www.w3.org/2000/svg" viewBox="0 0 16 16"><defs><style>.cls-1{fill:#158690;}</style></defs><title>safari-pinned-tab</title><path class="cls-1" d="M13.958,5.229a6.084,6.084,0,0,0-2.112-2.308,5.852,5.852,0,0,0-2.339-.882,18.453,18.453,0,0,0-2.676-.182h-.8v2.53h.063q1.056,0,1.816.036a3.291,3.291,0,0,1,1.452.419A3.354,3.354,0,0,1,10.777,6.33a5.226,5.226,0,0,1,.46,2.289,5.3,5.3,0,0,1-.437,2.266,3.383,3.383,0,0,1-1.274,1.456,3.075,3.075,0,0,1-1.5.487q-.788.042-1.934.041H6.031V10.245h-3.4v5.164H6.868a16.934,16.934,0,0,0,2.644-.2,5.864,5.864,0,0,0,2.3-.878,6.2,6.2,0,0,0,2.093-2.3,6.89,6.89,0,0,0,.829-3.391A7.163,7.163,0,0,0,13.958,5.229Z"/><rect class="cls-1" x="1.268" y="0.591" width="1.269" height="1.287"/><rect class="cls-1" x="1.268" y="5.418" width="1.269" height="1.287"/><rect class="cls-1" x="3.481" y="1.886" width="1.154" height="1.138" transform="translate(1.602 6.513) rotate(-90)"/><rect class="cls-1" x="3.357" y="6.676" width="1.401" height="1.138" transform="translate(-3.187 11.303) rotate(-90)"/><rect class="cls-1" x="2.45" y="7.919" width="1.126" height="0.952" transform="translate(-5.382 11.408) rotate(-90)"/><rect class="cls-1" x="3.575" y="4.206" width="0.965" height="1.138" transform="translate(-0.717 8.833) rotate(-90)"/><polygon class="cls-1" points="3.477 7.841 6.031 7.841 6.031 10.245 3.489 10.245 3.477 7.841"/><rect class="cls-1" x="4.627" y="3.033" width="1.404" height="4.814"/><rect class="cls-1" x="2.536" y="3.033" width="0.952" height="1.254"/></svg>