<?xml version="1.0" encoding="utf-8"?>
<!-- Generator: Adobe Illustrator 22.0.1, SVG Export Plug-In . SVG Version: 6.00 Build 0)  -->
<svg version="1.1" id="Layer_1" xmlns="http://www.w3.org/2000/svg" xmlns:xlink="http://www.w3.org/1999/xlink" x="0px" y="0px"
	 viewBox="0 0 512 95" style="enable-background:new 0 0 512 95;" xml:space="preserve">
<style type="text/css">
	.st0{fill:#A40505;}
	.st1{fill:#138690;}
</style>
<g>
	<g>
		<path class="st0" d="M0.2,74L22.9,6.9h18.4L64,74H46.6l-4.2-13.7H21.3L17.2,74H0.2z M38.7,48.2l-6.9-22.1L25,48.2H38.7z"/>
		<path class="st0" d="M119.8,74H70.5V63.1c4.2-3.3,7.9-6.4,11.2-9.4c3.3-2.9,6.2-5.7,8.8-8.4c3.3-3.4,5.7-6.5,7.1-9.1
			c1.5-2.6,2.2-5.3,2.2-8.1c0-3.1-1-5.5-2.8-7.2c-1.8-1.7-4.4-2.5-7.8-2.5c-1.7,0-3.3,0.2-4.8,0.6s-3,1-4.6,1.7
			c-1.5,0.7-2.9,1.4-3.9,2.1c-1.1,0.7-1.9,1.3-2.4,1.7h-1.3V9.9C74,9,76.9,8,81,7.1c4-1,7.9-1.4,11.6-1.4c7.9,0,14,1.8,18.1,5.3
			c4.1,3.6,6.2,8.5,6.2,15c0,3.9-1,7.9-2.8,11.6c-1.8,3.8-5,7.9-9.3,12.3c-2.7,2.7-5.3,5.1-7.9,7.2c-2.5,2.1-4.4,3.6-5.5,4.4h28.5
			L119.8,74L119.8,74z"/>
		<path class="st0" d="M122.2,74l22.7-67.1h18.4L186,74h-17.3l-4.2-13.7h-21.1L139.2,74H122.2z M160.7,48.2l-6.9-22.1L147,48.2
			H160.7z"/>
		<path class="st1" d="M305,16.2h-16.7V3.9H305V16.2z M304.5,74h-15.8V23.4h15.8V74z"/>
		<path class="st1" d="M362.7,68.3c0,4.7-0.7,8.7-2,11.9c-1.3,3.3-3.2,5.8-5.5,7.7c-2.4,1.8-5.1,3.2-8.4,4.1
			c-3.3,0.8-6.9,1.3-10.9,1.3c-3.4,0-6.5-0.2-9.6-0.6c-3-0.4-5.7-1-7.9-1.5V78.3h1.8c0.8,0.3,1.7,0.6,2.8,1c1.1,0.4,2.2,0.7,3.2,1
			c1.3,0.3,2.5,0.6,3.8,0.8c1.2,0.2,2.5,0.3,3.8,0.3c2.7,0,4.9-0.3,6.7-0.8c1.8-0.6,3.1-1.3,4.1-2.4c0.9-1.1,1.5-2.3,1.9-3.7
			c0.4-1.4,0.6-3.2,0.6-5.4v-1c-1.8,1.6-3.8,2.8-6.2,3.7c-2.4,1-4.7,1.4-7.2,1.4c-6.5,0-11.6-2.2-15.2-6.4
			c-3.6-4.3-5.3-10.7-5.3-19.5c0-3.9,0.6-7.6,1.7-10.7c1.1-3.2,2.6-5.8,4.6-8.1c1.8-2.2,4.1-3.7,6.7-5c2.7-1.1,5.4-1.7,8.3-1.7
			c2.6,0,4.9,0.3,6.9,1c2,0.6,3.9,1.5,5.6,2.7l0.6-2.2h15.3L362.7,68.3L362.7,68.3z M346.8,58.1V35.2c-0.8-0.4-1.7-0.6-2.9-0.9
			c-1.1-0.3-2.3-0.4-3.4-0.4c-3.8,0-6.6,1.2-8.6,3.7c-1.9,2.5-2.9,5.8-2.9,10.2c0,2.2,0.1,4.1,0.4,5.6s0.8,2.9,1.6,4.1
			c0.8,1.1,1.7,2,2.9,2.6c1.2,0.6,2.8,0.9,4.6,0.9c1.4,0,2.8-0.3,4.2-0.7C344.3,59.7,345.6,59,346.8,58.1z"/>
		<path class="st1" d="M390.9,16.2h-16.7V3.9h16.7V16.2z M390.5,74h-15.8V23.4h15.8V74z"/>
		<path class="st1" d="M422,75.1c-6.4,0-11.1-1.3-14-3.9c-2.9-2.7-4.4-7-4.4-13V34.5h-6v-11h6V9h15.8v14.5h15.2v11h-15.2v17.9
			c0,1.8,0,3.3,0.1,4.6c0,1.3,0.3,2.5,0.7,3.6c0.4,1.1,1.1,1.9,2.2,2.5s2.6,1,4.6,1c0.8,0,2-0.2,3.3-0.6c1.4-0.4,2.4-0.7,2.9-1h1.3
			v11.1c-1.7,0.4-3.6,0.8-5.5,1.1C427.1,74.9,424.8,75.1,422,75.1z"/>
		<path class="st1" d="M468.9,68.7c-1.1,0.9-2,1.7-2.9,2.4c-0.8,0.7-2,1.5-3.4,2.2s-2.8,1.2-4.1,1.6c-1.3,0.4-3.2,0.6-5.6,0.6
			c-4.5,0-8.2-1.5-11.2-4.5s-4.4-6.8-4.4-11.4c0-3.7,0.8-6.8,2.2-9.1c1.5-2.3,3.7-4.1,6.5-5.5c2.9-1.4,6.3-2.4,10.2-2.9
			c3.9-0.6,8.3-1,12.8-1.3v-0.3c0-2.8-1-4.7-3.1-5.8c-2-1.1-5.1-1.6-9.3-1.6c-1.8,0-4.1,0.3-6.5,1c-2.5,0.7-5,1.5-7.3,2.6h-1.3V24.6
			c1.6-0.4,4.1-1,7.6-1.6s7-1,10.5-1c8.7,0,15.1,1.5,19.1,4.3c4,2.9,6,7.3,6,13.3V74H469L468.9,68.7L468.9,68.7z M468.9,60.8V50.3
			c-2.7,0.3-4.8,0.5-6.5,0.7s-3.3,0.6-4.9,1.1c-1.4,0.5-2.5,1.2-3.2,2.2c-0.8,1-1.1,2.3-1.1,3.9c0,2.4,0.6,4,1.9,4.9
			c1.3,0.9,3.2,1.3,5.7,1.3c1.4,0,2.8-0.3,4.3-1C466.4,62.9,467.7,62,468.9,60.8z"/>
		<path class="st1" d="M512,74h-15.8V3.9H512V74z"/>
		<g>
			<path class="st1" d="M275.8,23.6c-2.5-4.8-6-8.6-10.5-11.4c-3.6-2.3-7.5-3.7-11.6-4.4c-4.1-0.6-8.5-0.9-13.3-0.9h-3.9v5.8h-6.9
				V19H224v4.8h5.7v6.4H224v6.4h-4.7V42h4.7v6.4h-4.3V74h21c4.6,0,9-0.3,13.1-1c4.1-0.6,7.9-2.1,11.4-4.3c4.2-2.7,7.6-6.4,10.4-11.4
				s4.1-10.5,4.1-16.8C279.7,34.1,278.4,28.4,275.8,23.6z M260.2,51.7c-1.5,3-3.6,5.5-6.3,7.2c-2.4,1.5-4.8,2.3-7.4,2.4
				c-2.6,0.1-5.8,0.2-9.6,0.2h-0.3v-13V36.6l0,0V19.5h0.3c3.5,0,6.5,0.1,9,0.2s4.9,0.8,7.2,2.1c3.2,1.8,5.5,4.3,7,7.4
				s2.3,6.9,2.3,11.4C262.4,44.8,261.7,48.6,260.2,51.7z"/>
			<rect x="213" y="0.7" class="st1" width="6.3" height="6.4"/>
			<rect x="213" y="24.6" class="st1" width="6.3" height="6.4"/>
			<rect x="224" y="7" class="st1" width="5.7" height="5.7"/>
			<rect x="219.3" y="12.7" class="st1" width="4.7" height="6.2"/>
		</g>
	</g>
</g>
</svg>
