<svg id="Layer_1" data-name="Layer 1" xmlns="http://www.w3.org/2000/svg" viewBox="0 0 806 292"><defs><style>.cls-1,.cls-2{fill:#fff;}.cls-2{font-size:155px;font-family:Gadugi-Bold, Gadugi;font-weight:700;}</style></defs><title>a2a-digital-logo</title><path class="cls-1" d="M.34,111.33,36,5.64H65l35.7,105.69H73.38l-6.6-21.58H33.56L27,111.33ZM61,70.59,50.17,35.74,39.38,70.59Z"/><path class="cls-1" d="M188.64,111.33H111V94.08q9.85-7.81,17.7-14.76t13.81-13.21a77.08,77.08,0,0,0,11.21-14.33,25.58,25.58,0,0,0,3.48-12.71q0-7.38-4.4-11.32t-12.28-3.94a28.13,28.13,0,0,0-7.63,1,59,59,0,0,0-7.27,2.55,43,43,0,0,0-6.18,3.34l-3.83,2.55h-2.06V10.19a74.53,74.53,0,0,1,14-4.37,80.06,80.06,0,0,1,18.32-2.24q18.79,0,28.49,8.38T184,35.52a41.29,41.29,0,0,1-4.4,18.35q-4.4,9-14.62,19.27-6.39,6.31-12.42,11.25t-8.73,7h44.78Z"/><path class="cls-1" d="M192.41,111.33,228.11,5.64h29l35.7,105.69H265.44l-6.6-21.58H225.62L219,111.33ZM253,70.59,242.23,35.74,231.44,70.59Z"/><path class="cls-1" d="M480.07,20.26H453.81V.89h26.26Zm-.7,91.07H454.52V31.62h24.85Z"/><path class="cls-1" d="M570.85,102.17q0,11.07-3.19,18.81a28.94,28.94,0,0,1-8.73,12.07,34.7,34.7,0,0,1-13.27,6.35,70.36,70.36,0,0,1-17.18,1.95,105,105,0,0,1-15.08-1A119,119,0,0,1,501,137.94V118h2.91c1.23.47,2.69,1,4.37,1.56s3.37,1.09,5.07,1.56c2,.52,4,.95,6,1.28a35.33,35.33,0,0,0,6,.5,35.87,35.87,0,0,0,10.54-1.32,13.71,13.71,0,0,0,6.35-3.72,14.24,14.24,0,0,0,3-5.86,35.26,35.26,0,0,0,.85-8.48V102a33.89,33.89,0,0,1-9.69,5.93A29.78,29.78,0,0,1,525,110.19q-15.46,0-23.88-10.08t-8.41-30.66a51,51,0,0,1,2.59-16.82,38,38,0,0,1,7.2-12.71,29.88,29.88,0,0,1,10.65-7.77,32.08,32.08,0,0,1,13-2.73A35.48,35.48,0,0,1,537.07,31a35.89,35.89,0,0,1,8.8,4.19l.92-3.55h24.06ZM546,86.2V50.07a22,22,0,0,0-4.54-1.42,26.74,26.74,0,0,0-5.39-.56q-9,0-13.45,5.78T518.12,70a48.24,48.24,0,0,0,.67,8.76,17,17,0,0,0,2.52,6.36A11.38,11.38,0,0,0,526,89.22a17,17,0,0,0,7.35,1.38,19.81,19.81,0,0,0,6.56-1.13A23.64,23.64,0,0,0,546,86.2Z"/><path class="cls-1" d="M615.43,20.26H589.17V.89h26.26Zm-.71,91.07H589.88V31.62h24.84Z"/><path class="cls-1" d="M664.26,112.89q-15.19,0-22.11-6.25T635.23,86.2V48.94h-9.51V31.62h9.51V8.84h24.84V31.62H684V48.94H660.07V77.19q0,4.19.07,7.31a15,15,0,0,0,1.14,5.6A7.83,7.83,0,0,0,664.79,94q2.52,1.45,7.35,1.46a21.38,21.38,0,0,0,5.21-.85,21.91,21.91,0,0,0,4.51-1.56H684v17.53a69.56,69.56,0,0,1-8.59,1.66A85.06,85.06,0,0,1,664.26,112.89Z"/><path class="cls-1" d="M738.08,102.88l-4.58,3.83a27.87,27.87,0,0,1-5.43,3.41,29.69,29.69,0,0,1-15.33,3.34,23.65,23.65,0,0,1-17.57-7.1q-7-7.1-7-17.89,0-8.86,3.55-14.33A24.2,24.2,0,0,1,702,65.48a53.27,53.27,0,0,1,16.11-4.55q9.38-1.27,20.16-2v-.43q0-6.6-4.86-9.12t-14.59-2.52a39.9,39.9,0,0,0-10.29,1.6A79,79,0,0,0,697,52.56h-2.13V33.32q3.69-1.07,11.93-2.52a95.11,95.11,0,0,1,16.6-1.45q20.6,0,30,6.85t9.41,20.9v54.23h-24.7Zm0-12.35V73.92c-4.22.43-7.62.8-10.22,1.1a34.78,34.78,0,0,0-7.67,1.81,10.82,10.82,0,0,0-5.08,3.44,9.73,9.73,0,0,0-1.81,6.14q0,5.61,3,7.7t8.91,2.1a16.64,16.64,0,0,0,6.67-1.49A20.86,20.86,0,0,0,738.08,90.53Z"/><path class="cls-1" d="M806,111.33H781.16V.89H806Z"/><path class="cls-1" d="M434.22,31.94a47.31,47.31,0,0,0-16.46-18,45.65,45.65,0,0,0-18.24-6.89,145.66,145.66,0,0,0-20.87-1.42H372.4V25.37h.5q8.24,0,14.16.29a25.8,25.8,0,0,1,11.32,3.26,26.16,26.16,0,0,1,11,11.61Q413,47.94,413,58.38t-3.41,17.67a26.4,26.4,0,0,1-9.93,11.36A24,24,0,0,1,388,91.2q-6.14.33-15.08.32h-.5V71.06H345.86v40.27h33.07a132.23,132.23,0,0,0,20.62-1.53A45.79,45.79,0,0,0,417.47,103,48.31,48.31,0,0,0,433.8,85a53.76,53.76,0,0,0,6.46-26.44Q440.26,43.26,434.22,31.94Z"/><rect class="cls-1" x="335.27" y="-4.22" width="9.89" height="10.04"/><rect class="cls-1" x="335.27" y="33.42" width="9.89" height="10.04"/><rect class="cls-1" x="352.52" y="5.88" width="9" height="8.88" transform="translate(346.71 367.33) rotate(-90)"/><rect class="cls-1" x="351.56" y="43.23" width="10.93" height="8.88" transform="translate(309.36 404.68) rotate(-90)"/><rect class="cls-1" x="344.48" y="52.92" width="8.78" height="7.42" transform="translate(292.24 405.5) rotate(-90)"/><rect class="cls-1" x="353.26" y="23.96" width="7.53" height="8.88" transform="translate(328.62 385.42) rotate(-90)"/><polygon class="cls-1" points="352.49 52.31 372.4 52.31 372.4 71.06 352.58 71.06 352.49 52.31"/><rect class="cls-1" x="361.46" y="14.81" width="10.95" height="37.54"/><rect class="cls-1" x="345.15" y="14.81" width="7.43" height="9.78"/><text class="cls-2" transform="translate(188.62 251.54)">Japan</text></svg>